<?xml version="1.0" standalone="no"?>
<!DOCTYPE svg PUBLIC "-//W3C//DTD SVG 20010904//EN"
 "http://www.w3.org/TR/2001/REC-SVG-20010904/DTD/svg10.dtd">
<svg version="1.0" xmlns="http://www.w3.org/2000/svg"
 width="33.000000pt" height="50.000000pt" viewBox="0 0 33.000000 50.000000"
 preserveAspectRatio="xMidYMid meet">
<metadata>
Created by potrace 1.16, written by Peter Selinger 2001-2019
</metadata>
<g transform="translate(0.000000,50.000000) scale(0.100000,-0.100000)"
fill="#000000" stroke="none">
<path d="M0 250 l0 -250 69 0 68 0 9 73 c5 39 7 93 6 120 -3 36 0 47 11 47 19
0 29 -25 21 -56 -5 -18 -2 -24 11 -24 13 0 15 -5 9 -22 -8 -24 -9 -39 -6 -100
l2 -38 65 0 65 0 0 250 0 250 -64 0 c-42 0 -66 -4 -69 -12 -4 -10 -6 -10 -6 0
-1 9 -27 12 -96 12 l-95 0 0 -250z m181 117 c2 -83 -3 -122 -14 -106 -4 6 4
211 9 207 2 -2 4 -48 5 -101z"/>
</g>
</svg>
